---
title: Themed Class Diagram
config:
    theme: bluegray
    scale: 1.2
    skinparams:
      defaultFontName: "Roboto, Arial, Helvetica, SansSerif, sans-serif"
---
@startuml
abstract class Animal {
  +name: String
  +age: int
  +makeSound(): void
}

class Dog {
  +breed: String
  +bark(): void
  +makeSound(): void
}

class Cat {
  +color: String
  +meow(): void
  +makeSound(): void
}

Animal <|-- Dog
Animal <|-- Cat
@enduml
